<svg width="313" height="281" viewBox="0 0 313 281" fill="none" xmlns="http://www.w3.org/2000/svg">
<path d="M64 19H102V210C102 212.761 99.7614 215 97 215H69C66.2386 215 64 212.761 64 210V19Z" fill="white" stroke="#D71010" stroke-width="4" stroke-linecap="round" stroke-linejoin="round"/>
<path d="M211 19H249V210C249 212.761 246.761 215 244 215H216C213.239 215 211 212.761 211 210V19Z" fill="white" stroke="#D71010" stroke-width="4" stroke-linecap="round" stroke-linejoin="round"/>
<path d="M273 101H311V212C311 214.761 308.761 217 306 217H278C275.239 217 273 214.761 273 212V101Z" fill="white" stroke="#D71010" stroke-width="4" stroke-linecap="round" stroke-linejoin="round"/>
<path d="M2 101H40V212C40 214.761 37.7614 217 35 217H7C4.23858 217 2 214.761 2 212V101Z" fill="white" stroke="#D71010" stroke-width="4" stroke-linecap="round" stroke-linejoin="round"/>
<path d="M69 155H244C246.761 155 249 157.239 249 160V211C249 213.761 246.761 216 244 216H69C66.2386 216 64 213.761 64 211V160C64 157.239 66.2386 155 69 155Z" fill="white" stroke="#D71010" stroke-width="4" stroke-linecap="round" stroke-linejoin="round"/>
<path d="M69 179.367H99.4498C101.568 179.367 103.618 178.621 105.239 177.258L152.825 137.28C154.671 135.728 157.362 135.716 159.223 137.251L207.788 177.31C209.4 178.64 211.425 179.367 213.514 179.367H244C246.761 179.367 249 181.606 249 184.367V212C249 214.761 246.761 217 244 217H202.984H100.822H69C66.2386 217 64 214.761 64 212V184.367C64 181.606 66.2386 179.367 69 179.367Z" fill="white" stroke="#D71010" stroke-width="4" stroke-linecap="round" stroke-linejoin="round"/>
<path d="M79 111.5C79 109.015 81.0147 107 83.5 107C85.9853 107 88 109.015 88 111.5V138H79V111.5Z" fill="white" stroke="#D71010" stroke-width="4" stroke-linecap="round" stroke-linejoin="round"/>
<path d="M79 59.5C79 57.0147 81.0147 55 83.5 55C85.9853 55 88 57.0147 88 59.5V86H79V59.5Z" fill="white" stroke="#D71010" stroke-width="4" stroke-linecap="round" stroke-linejoin="round"/>
<path d="M226 59.5C226 57.0147 228.015 55 230.5 55C232.985 55 235 57.0147 235 59.5V86H226V59.5Z" fill="white" stroke="#D71010" stroke-width="4" stroke-linecap="round" stroke-linejoin="round"/>
<path d="M288 121.5C288 119.015 290.015 117 292.5 117C294.985 117 297 119.015 297 121.5V148H288V121.5Z" fill="white" stroke="#D71010" stroke-width="4" stroke-linecap="round" stroke-linejoin="round"/>
<path d="M17 121.5C17 119.015 19.0147 117 21.5 117C23.9853 117 26 119.015 26 121.5V148H17V121.5Z" fill="white" stroke="#D71010" stroke-width="4" stroke-linecap="round" stroke-linejoin="round"/>
<path d="M226 111.5C226 109.015 228.015 107 230.5 107C232.985 107 235 109.015 235 111.5V138H226V111.5Z" fill="white" stroke="#D71010" stroke-width="4" stroke-linecap="round" stroke-linejoin="round"/>
<path d="M288 173.5C288 171.015 290.015 169 292.5 169C294.985 169 297 171.015 297 173.5V200H288V173.5Z" fill="white" stroke="#D71010" stroke-width="4" stroke-linecap="round" stroke-linejoin="round"/>
<path d="M17 173.5C17 171.015 19.0147 169 21.5 169C23.9853 169 26 171.015 26 173.5V200H17V173.5Z" fill="white" stroke="#D71010" stroke-width="4" stroke-linecap="round" stroke-linejoin="round"/>
<line x1="138.5" y1="164" x2="138.5" y2="214" stroke="#777777" stroke-width="3"/>
<line x1="145.5" y1="158" x2="145.5" y2="214" stroke="#777777" stroke-width="3"/>
<path d="M152.5 154.5L152.5 214" stroke="#777777" stroke-width="3"/>
<path d="M182 209L129 209" stroke="#777777" stroke-width="3"/>
<path d="M181 202L128 202" stroke="#777777" stroke-width="3"/>
<path d="M181 195L128 195" stroke="#777777" stroke-width="3"/>
<path d="M181 188L128 188" stroke="#777777" stroke-width="3"/>
<path d="M181 181L128 181" stroke="#777777" stroke-width="3"/>
<path d="M181 174L131 174" stroke="#777777" stroke-width="3"/>
<path d="M178 167H134" stroke="#777777" stroke-width="3"/>
<path d="M166 160H145" stroke="#777777" stroke-width="3"/>
<line x1="159.5" y1="156" x2="159.5" y2="214" stroke="#777777" stroke-width="3"/>
<line x1="166.5" y1="160" x2="166.5" y2="214" stroke="#777777" stroke-width="3"/>
<line x1="173.5" y1="164" x2="173.5" y2="214" stroke="#777777" stroke-width="3"/>
<path d="M129 174.203C129 172.77 129.609 171.428 130.673 170.517L129.408 169.04L130.673 170.517C135.543 166.347 146.613 157.175 154.317 153.033C155.377 152.463 156.623 152.463 157.683 153.033C165.387 157.175 176.457 166.347 181.327 170.517C182.391 171.428 183 172.77 183 174.203V211C183 213.761 180.761 216 178 216H134C131.239 216 129 213.761 129 211V174.203Z" stroke="#D71010" stroke-width="4" stroke-linecap="round" stroke-linejoin="round"/>
<path d="M69 15L64 15L64 4.49998C64 3.11927 65.1193 1.99998 66.5 1.99998C67.8807 1.99998 69 3.11927 69 4.49998L69 15Z" fill="#777777" stroke="#777777" stroke-width="4" stroke-linecap="round" stroke-linejoin="round"/>
<path d="M216 15L211 15L211 4.49998C211 3.11927 212.119 1.99998 213.5 1.99998C214.881 1.99998 216 3.11927 216 4.49998L216 15Z" fill="#777777" stroke="#777777" stroke-width="4" stroke-linecap="round" stroke-linejoin="round"/>
<path d="M278 97L273 97L273 86.5C273 85.1193 274.119 84 275.5 84C276.881 84 278 85.1193 278 86.5L278 97Z" fill="#777777" stroke="#777777" stroke-width="4" stroke-linecap="round" stroke-linejoin="round"/>
<path d="M7 97L2 97L2 86.5C2 85.1193 3.11929 84 4.5 84C5.88071 84 7 85.1193 7 86.5L7 97Z" fill="#777777" stroke="#777777" stroke-width="4" stroke-linecap="round" stroke-linejoin="round"/>
<path d="M80 15L75 15L75 4.49998C75 3.11927 76.1193 1.99998 77.5 1.99998C78.8807 1.99998 80 3.11927 80 4.49998L80 15Z" fill="#777777" stroke="#777777" stroke-width="4" stroke-linecap="round" stroke-linejoin="round"/>
<path d="M227 15L222 15L222 4.49998C222 3.11927 223.119 1.99998 224.5 1.99998C225.881 1.99998 227 3.11927 227 4.49998L227 15Z" fill="#777777" stroke="#777777" stroke-width="4" stroke-linecap="round" stroke-linejoin="round"/>
<path d="M289 97L284 97L284 86.5C284 85.1193 285.119 84 286.5 84C287.881 84 289 85.1193 289 86.5L289 97Z" fill="#777777" stroke="#777777" stroke-width="4" stroke-linecap="round" stroke-linejoin="round"/>
<path d="M18 97L13 97L13 86.5C13 85.1193 14.1193 84 15.5 84C16.8807 84 18 85.1193 18 86.5L18 97Z" fill="#777777" stroke="#777777" stroke-width="4" stroke-linecap="round" stroke-linejoin="round"/>
<path d="M91 15L86 15L86 4.49998C86 3.11927 87.1193 1.99998 88.5 1.99998C89.8807 1.99998 91 3.11927 91 4.49998L91 15Z" fill="#777777" stroke="#777777" stroke-width="4" stroke-linecap="round" stroke-linejoin="round"/>
<path d="M238 15L233 15L233 4.49998C233 3.11927 234.119 1.99998 235.5 1.99998C236.881 1.99998 238 3.11927 238 4.49998L238 15Z" fill="#777777" stroke="#777777" stroke-width="4" stroke-linecap="round" stroke-linejoin="round"/>
<path d="M300 97L295 97L295 86.5C295 85.1193 296.119 84 297.5 84C298.881 84 300 85.1193 300 86.5L300 97Z" fill="#777777" stroke="#777777" stroke-width="4" stroke-linecap="round" stroke-linejoin="round"/>
<path d="M29 97L24 97L24 86.5C24 85.1193 25.1193 84 26.5 84C27.8807 84 29 85.1193 29 86.5L29 97Z" fill="#777777" stroke="#777777" stroke-width="4" stroke-linecap="round" stroke-linejoin="round"/>
<path d="M102 15L97 15L97 4.49998C97 3.11927 98.1193 1.99998 99.5 1.99998C100.881 1.99998 102 3.11927 102 4.49998L102 15Z" fill="#777777" stroke="#777777" stroke-width="4" stroke-linecap="round" stroke-linejoin="round"/>
<path d="M249 15L244 15L244 4.49998C244 3.11927 245.119 1.99998 246.5 1.99998C247.881 1.99998 249 3.11927 249 4.49998L249 15Z" fill="#777777" stroke="#777777" stroke-width="4" stroke-linecap="round" stroke-linejoin="round"/>
<path d="M311 97L306 97L306 86.5C306 85.1193 307.119 84 308.5 84C309.881 84 311 85.1193 311 86.5L311 97Z" fill="#777777" stroke="#777777" stroke-width="4" stroke-linecap="round" stroke-linejoin="round"/>
<path d="M40 97L35 97L35 86.5C35 85.1193 36.1193 84 37.5 84C38.8807 84 40 85.1193 40 86.5L40 97Z" fill="#777777" stroke="#777777" stroke-width="4" stroke-linecap="round" stroke-linejoin="round"/>
<line x1="38" y1="205" x2="64" y2="205" stroke="#D71010" stroke-width="4"/>
<line x1="248" y1="205" x2="274" y2="205" stroke="#D71010" stroke-width="4"/>
<line x1="38" y1="119" x2="64" y2="119" stroke="#D71010" stroke-width="4"/>
<line x1="248" y1="119" x2="274" y2="119" stroke="#D71010" stroke-width="4"/>
<path d="M193.832 85.7941C192.588 85.4664 189.161 84.5222 189.156 84.5111C189.15 84.5 189.089 84.2445 189.017 83.939C188.945 83.6335 188.806 83.0837 188.695 82.7226L188.506 82.0561L190.294 80.2677C191.961 78.6014 192.083 78.4681 192.027 78.3459C191.977 78.2349 188.8 72.7418 188.767 72.7084C188.762 72.7029 187.656 72.9917 186.318 73.3472L183.879 74.0026L182.974 73.0972C182.474 72.5974 182.069 72.1641 182.069 72.1364C182.069 72.103 182.358 70.9978 182.707 69.6814C183.057 68.3651 183.341 67.282 183.335 67.2709C183.28 67.2209 177.659 63.9717 177.62 63.9717C177.598 63.9717 176.781 64.7771 175.804 65.7602L174.032 67.5486L173.343 67.3431C172.965 67.232 172.432 67.0876 172.155 67.021C171.377 66.8432 171.455 66.9321 171.21 65.9657C171.094 65.4936 170.816 64.4105 170.599 63.5552L170.199 62L166.872 62L163.546 62L163.234 63.2219C163.062 63.894 162.785 64.9715 162.624 65.6102C162.462 66.2545 162.318 66.7932 162.301 66.8155C162.285 66.8377 161.879 66.9543 161.407 67.0765C160.935 67.1931 160.352 67.3542 160.113 67.432L159.685 67.5708L157.925 65.7713C156.958 64.7826 156.147 63.9717 156.125 63.9717C156.081 63.9717 150.532 67.1765 150.449 67.2487C150.421 67.2709 150.704 68.3762 151.076 69.6981L151.754 72.1086L150.793 73.0695L149.832 74.0303L147.466 73.3805C146.166 73.025 145.078 72.7196 145.045 72.7084C145.011 72.6973 144.284 73.897 143.412 75.3967C142.551 76.8852 141.795 78.1849 141.74 78.2793L141.64 78.4459L143.428 80.1899C144.411 81.1508 145.222 81.9617 145.233 82.0006C145.244 82.0339 145.15 82.3894 145.033 82.7782C144.911 83.1725 144.756 83.7391 144.684 84.0334C144.6 84.3944 144.528 84.5833 144.472 84.6055C144.422 84.6166 143.423 84.8832 142.245 85.1887C141.068 85.4997 140.012 85.7719 139.901 85.8052L139.69 85.8607L139.69 89.1822L139.69 92.5091L140.012 92.5869C140.185 92.6369 141.279 92.9146 142.445 93.2145L144.561 93.7532L144.684 94.292C144.75 94.5864 144.906 95.1696 145.033 95.5972L145.261 96.3637L144.406 97.2079C143.934 97.6689 143.123 98.4632 142.595 98.9742L141.645 99.9017L143.306 102.779C144.6 105.023 144.989 105.65 145.067 105.639C145.117 105.628 145.867 105.423 146.733 105.178C147.594 104.939 148.316 104.739 148.338 104.739C148.36 104.739 147.694 105.139 146.866 105.634L145.35 106.522L145.033 106.333C144.234 105.85 143.206 105.411 142.212 105.128L141.601 104.95L141.19 103.334C140.968 102.44 140.757 101.629 140.734 101.529L140.685 101.351L138.757 101.362L136.83 101.379L136.38 103.151C136.013 104.612 135.913 104.934 135.825 104.967C135.769 104.989 135.458 105.084 135.136 105.184C134.358 105.417 133.514 105.778 132.786 106.183L132.187 106.517L130.598 105.573L129.004 104.634L127.688 105.911C126.966 106.611 126.344 107.222 126.305 107.261C126.255 107.328 126.416 107.644 127.182 108.938L128.121 110.532L127.743 111.26C127.304 112.11 127.038 112.771 126.782 113.671L126.594 114.32L124.8 114.765L123 115.215L123 117.153L123 119.091L124.8 119.541L126.594 119.986L126.777 120.63C127.027 121.491 127.304 122.185 127.732 123.018L128.093 123.718L127.166 125.34L126.238 126.967L126.421 127.162C126.527 127.267 127.149 127.878 127.81 128.511L129.01 129.672L130.604 128.728L132.203 127.789L132.531 127.984C133.247 128.422 134.63 129 135.458 129.211C135.841 129.311 135.863 129.322 135.913 129.511C135.941 129.617 136.163 130.439 136.397 131.327L136.83 132.955L138.757 132.955L140.69 132.955L140.718 132.832C140.74 132.76 140.957 131.944 141.207 131.016L141.662 129.322L142.217 129.167C143.201 128.883 144.161 128.472 145.106 127.923L145.328 127.795L146.939 128.733L148.549 129.672L149.899 128.328C150.726 127.506 151.237 126.951 151.226 126.901C151.215 126.856 150.804 126.123 150.31 125.268L149.421 123.724L149.582 123.457C150.043 122.707 150.91 120.569 150.91 120.18C150.91 120.102 150.971 120.058 151.121 120.013C151.232 119.986 152.054 119.758 152.937 119.519L154.548 119.086L154.564 117.164L154.576 115.248L154.398 115.187C154.298 115.159 153.554 114.954 152.743 114.737C151.932 114.52 151.199 114.32 151.104 114.293C150.954 114.243 150.926 114.198 150.843 113.848C150.649 113.071 150.077 111.721 149.577 110.849L149.399 110.544L150.321 108.977C150.826 108.116 151.243 107.394 151.243 107.367C151.243 107.344 150.649 106.728 149.927 106.006C149.205 105.278 148.621 104.678 148.638 104.662C148.649 104.645 148.927 104.562 149.244 104.473L149.827 104.312L150.776 105.273L151.726 106.233L151.454 107.222C150.593 110.355 150.399 111.082 150.415 111.099C150.427 111.11 151.715 111.854 153.281 112.754L156.125 114.393L157.28 113.221C157.914 112.571 158.713 111.76 159.047 111.421L159.658 110.793L160.185 110.96C160.474 111.055 161.046 111.216 161.457 111.321C161.868 111.427 162.213 111.527 162.229 111.538C162.246 111.554 162.546 112.649 162.901 113.97L163.551 116.375L166.872 116.375L170.194 116.375L170.833 113.987C171.188 112.676 171.494 111.577 171.51 111.554C171.532 111.532 171.916 111.416 172.354 111.299C172.793 111.182 173.349 111.027 173.587 110.955L174.021 110.827L175.809 112.615L177.598 114.404L180.458 112.76C182.03 111.854 183.324 111.105 183.335 111.099C183.341 111.093 183.046 109.983 182.68 108.627L182.013 106.167L182.93 105.25L183.846 104.334L185.635 104.823C186.623 105.089 187.728 105.389 188.095 105.489C188.462 105.595 188.762 105.673 188.767 105.667C188.811 105.617 192.066 99.9406 192.066 99.9184C192.066 99.8962 191.266 99.0797 190.283 98.0966L188.5 96.3137L188.623 95.9083C188.689 95.6861 188.828 95.1418 188.934 94.6975C189.034 94.2531 189.139 93.8754 189.161 93.8532C189.189 93.831 190.206 93.5477 191.428 93.22C192.649 92.8923 193.744 92.598 193.86 92.5646L194.066 92.5036L194.066 89.1822L194.066 85.8608L193.832 85.7941Z" fill="#777777"/>
<circle cx="167" cy="89" r="15" fill="white"/>
<circle cx="138.5" cy="117.5" r="7.5" fill="white"/>
<path d="M8.89512 272.117H13.7738V253.762H21.9254V250.123H13.7738V248.781C13.7738 248.009 13.8687 247.331 14.0584 246.749C14.2617 246.166 14.5599 245.678 14.9529 245.285C15.373 244.865 15.9083 244.547 16.5588 244.33C17.2228 244.113 18.0088 244.004 18.9168 244.004C19.7842 244.004 20.5566 244.059 21.2342 244.167C21.9254 244.275 22.542 244.404 23.0841 244.553L23.4703 240.671C23.0637 240.589 22.664 240.515 22.2709 240.447C21.8779 240.366 21.4917 240.298 21.1123 240.244C20.6515 240.176 20.1772 240.122 19.6893 240.081C19.215 240.027 18.7271 240 18.2257 240C16.8027 240 15.5153 240.19 14.3634 240.569C13.225 240.949 12.2492 241.504 11.4361 242.236C10.623 242.981 9.99283 243.903 9.54562 245C9.11195 246.085 8.89512 247.345 8.89512 248.781V250.123H3V253.762H8.89512V272.117Z" fill="#D71010"/>
<path d="M39.5018 272.117H44.4618V271.771C44.1908 271.202 43.9807 270.525 43.8316 269.739C43.6961 268.939 43.6284 268.045 43.6284 267.056V257.278C43.6284 256.031 43.398 254.934 42.9372 253.985C42.4764 253.023 41.8395 252.23 41.0264 251.607C40.2133 250.983 39.2443 250.516 38.1195 250.204C37.0082 249.879 35.8089 249.716 34.5214 249.716C33.0849 249.716 31.8042 249.906 30.6794 250.286C29.5682 250.651 28.6263 251.153 27.8538 251.79C27.0814 252.413 26.4919 253.131 26.0853 253.944C25.6787 254.758 25.4687 255.605 25.4551 256.485H30.3338C30.3338 256.065 30.4084 255.672 30.5575 255.306C30.7201 254.927 30.964 254.608 31.2893 254.351C31.6145 254.066 32.0211 253.843 32.5089 253.68C33.0104 253.518 33.5931 253.436 34.2572 253.436C34.989 253.436 35.6327 253.531 36.1883 253.721C36.7575 253.897 37.2386 254.155 37.6316 254.493C37.9975 254.832 38.2753 255.232 38.465 255.693C38.6683 256.153 38.77 256.668 38.77 257.237V258.721H35.2329C33.6473 258.721 32.2243 258.87 30.964 259.169C29.7172 259.467 28.667 259.9 27.8132 260.47C26.8916 261.079 26.1869 261.852 25.6991 262.787C25.2247 263.708 24.9876 264.772 24.9876 265.978C24.9876 266.913 25.1705 267.787 25.5364 268.6C25.9159 269.4 26.4376 270.084 27.1017 270.653C27.7793 271.236 28.5856 271.697 29.5207 272.036C30.4694 272.361 31.5129 272.524 32.6512 272.524C33.3559 272.524 34.0132 272.456 34.6231 272.32C35.2329 272.185 35.8021 271.995 36.3306 271.751C36.8591 271.521 37.3335 271.25 37.7536 270.938C38.1872 270.613 38.5735 270.274 38.9123 269.922C38.98 270.342 39.0546 270.748 39.1359 271.141C39.2307 271.521 39.3527 271.846 39.5018 272.117ZM33.5863 268.621C32.9629 268.621 32.4209 268.546 31.9601 268.397C31.4993 268.235 31.1131 268.018 30.8014 267.747C30.4897 267.476 30.2525 267.15 30.0899 266.771C29.9273 266.378 29.846 265.958 29.846 265.511C29.846 264.969 29.9408 264.481 30.1306 264.047C30.3338 263.613 30.6388 263.241 31.0453 262.929C31.5061 262.563 32.1227 262.285 32.8952 262.096C33.6676 261.892 34.5824 261.791 35.6395 261.791H38.77V265.856C38.5938 266.209 38.3431 266.547 38.0178 266.873C37.6926 267.198 37.3064 267.489 36.8591 267.747C36.4119 268.004 35.9105 268.214 35.3549 268.377C34.8128 268.539 34.2233 268.621 33.5863 268.621Z" fill="#D71010"/>
<path d="M57.1188 268.621C56.1024 268.621 55.2554 268.417 54.5778 268.011C53.9002 267.604 53.3649 267.069 52.9719 266.405C52.5654 265.741 52.274 264.982 52.0978 264.128C51.9352 263.261 51.8539 262.38 51.8539 261.486V260.774C51.8539 259.894 51.9352 259.026 52.0978 258.173C52.274 257.319 52.5654 256.56 52.9719 255.896C53.3785 255.232 53.9138 254.697 54.5778 254.29C55.2554 253.87 56.1024 253.66 57.1188 253.66C57.7829 253.66 58.3995 253.775 58.9687 254.005C59.5514 254.236 60.0528 254.548 60.473 254.941C60.8795 255.333 61.1912 255.794 61.408 256.323C61.6384 256.851 61.7536 257.414 61.7536 258.01H66.3274C66.341 256.79 66.1174 255.672 65.6566 254.656C65.2094 253.64 64.5792 252.765 63.7661 252.034C62.953 251.302 61.9772 250.733 60.8389 250.326C59.714 249.92 58.4876 249.716 57.1595 249.716C55.479 249.716 54.0019 250.015 52.728 250.611C51.4677 251.194 50.4106 251.986 49.5568 252.989C48.703 253.992 48.0593 255.164 47.6257 256.506C47.2055 257.847 46.9955 259.27 46.9955 260.774V261.486C46.9955 263.004 47.2123 264.433 47.646 265.775C48.0797 267.103 48.7166 268.268 49.5568 269.271C50.4106 270.274 51.4677 271.074 52.728 271.67C54.0019 272.253 55.4858 272.544 57.1798 272.544C58.3995 272.544 59.5582 272.347 60.6559 271.954C61.7672 271.548 62.7497 270.999 63.6035 270.308C64.4437 269.617 65.1077 268.804 65.5956 267.869C66.097 266.92 66.341 265.91 66.3274 264.84H61.7536C61.7536 265.395 61.6249 265.904 61.3674 266.364C61.1235 266.825 60.7914 267.225 60.3713 267.564C59.9377 267.902 59.4362 268.167 58.867 268.356C58.3114 268.533 57.7287 268.621 57.1188 268.621Z" fill="#D71010"/>
<path d="M79.391 244.757H74.5123V250.123H69.1864V253.762H74.5123V264.576C74.5123 265.985 74.6952 267.191 75.0611 268.194C75.4406 269.197 75.9624 270.023 76.6264 270.674C77.2905 271.311 78.0832 271.785 79.0048 272.097C79.9399 272.395 80.963 272.544 82.0743 272.544C82.6842 272.544 83.294 272.51 83.9038 272.442C84.5272 272.388 85.1235 272.307 85.6927 272.198C86.2619 272.09 86.7904 271.961 87.2783 271.812C87.7797 271.649 88.2066 271.46 88.5589 271.243L88.0304 267.889C87.7865 267.943 87.4816 268.011 87.1157 268.092C86.7633 268.16 86.3771 268.221 85.957 268.275C85.5504 268.343 85.1235 268.397 84.6763 268.438C84.2291 268.478 83.7954 268.499 83.3753 268.499C82.7926 268.499 82.2573 268.431 81.7694 268.295C81.2815 268.16 80.8614 267.93 80.5091 267.604C80.1567 267.293 79.8789 266.866 79.6756 266.324C79.4859 265.768 79.391 265.084 79.391 264.271V253.762H87.6645V250.123H79.391V244.757Z" fill="#D71010"/>
<path d="M90.8284 260.917V261.344C90.8284 262.956 91.0587 264.44 91.5195 265.795C91.9803 267.15 92.6511 268.329 93.532 269.332C94.3993 270.335 95.4699 271.121 96.7438 271.69C98.0177 272.259 99.461 272.544 101.074 272.544C102.673 272.544 104.103 272.259 105.363 271.69C106.637 271.121 107.707 270.335 108.575 269.332C109.442 268.329 110.106 267.15 110.567 265.795C111.028 264.44 111.258 262.956 111.258 261.344V260.917C111.258 259.318 111.028 257.841 110.567 256.485C110.106 255.117 109.442 253.931 108.575 252.928C107.694 251.925 106.616 251.139 105.343 250.57C104.082 250.001 102.646 249.716 101.033 249.716C99.4203 249.716 97.9838 250.001 96.7235 250.57C95.4631 251.139 94.3993 251.925 93.532 252.928C92.6511 253.931 91.9803 255.117 91.5195 256.485C91.0587 257.841 90.8284 259.318 90.8284 260.917ZM95.6868 261.344V260.917C95.6868 259.955 95.7884 259.033 95.9917 258.152C96.2085 257.271 96.5338 256.499 96.9674 255.835C97.4146 255.171 97.9703 254.642 98.6343 254.249C99.3119 253.856 100.111 253.66 101.033 253.66C101.968 253.66 102.768 253.856 103.432 254.249C104.109 254.642 104.665 255.171 105.099 255.835C105.532 256.499 105.858 257.271 106.074 258.152C106.291 259.033 106.4 259.955 106.4 260.917V261.344C106.4 262.333 106.291 263.268 106.074 264.149C105.871 265.03 105.553 265.802 105.119 266.466C104.685 267.13 104.13 267.659 103.452 268.052C102.774 268.431 101.982 268.621 101.074 268.621C100.139 268.621 99.3322 268.431 98.6546 268.052C97.977 267.659 97.4146 267.13 96.9674 266.466C96.5338 265.802 96.2085 265.03 95.9917 264.149C95.7884 263.268 95.6868 262.333 95.6868 261.344Z" fill="#D71010"/>
<path d="M129.017 249.716C127.5 249.716 126.11 250.069 124.85 250.773C123.603 251.478 122.533 252.447 121.638 253.68L121.618 253.172L121.415 250.123H116.861V272.117H121.72V258.538C121.977 257.888 122.296 257.312 122.675 256.811C123.054 256.309 123.515 255.896 124.057 255.571C124.559 255.232 125.135 254.981 125.785 254.819C126.436 254.656 127.168 254.575 127.981 254.575C128.699 254.575 129.417 254.615 130.135 254.697C130.867 254.778 131.606 254.9 132.351 255.062L133.042 250.265C132.622 250.116 132.039 249.987 131.294 249.879C130.562 249.771 129.803 249.716 129.017 249.716Z" fill="#D71010"/>
<path d="M138.666 281C139.736 281 140.672 280.81 141.471 280.431C142.271 280.065 142.962 279.604 143.545 279.049C144.127 278.507 144.608 277.91 144.988 277.26C145.381 276.623 145.706 276.02 145.964 275.451L157.124 250.123H151.737L146.431 263.62L145.516 265.978L144.764 263.559L139.296 250.123H133.95L143.321 271.141L141.939 273.764C141.79 274.062 141.627 274.346 141.451 274.617C141.288 274.888 141.071 275.2 140.8 275.552C140.516 275.905 140.184 276.216 139.804 276.487C139.425 276.772 138.998 276.914 138.524 276.914C138.307 276.914 138.022 276.901 137.67 276.874C137.331 276.86 137.026 276.846 136.755 276.833L136.084 280.634C136.477 280.729 136.891 280.81 137.324 280.878C137.758 280.959 138.205 281 138.666 281Z" fill="#D71010"/>
<path d="M176.489 275.959V272.117H157.909V275.959H176.489Z" fill="#D71010"/>
<path d="M189.654 268.621C188.638 268.621 187.791 268.417 187.113 268.011C186.436 267.604 185.9 267.069 185.507 266.405C185.101 265.741 184.809 264.982 184.633 264.128C184.471 263.261 184.389 262.38 184.389 261.486V260.774C184.389 259.894 184.471 259.026 184.633 258.173C184.809 257.319 185.101 256.56 185.507 255.896C185.914 255.232 186.449 254.697 187.113 254.29C187.791 253.87 188.638 253.66 189.654 253.66C190.318 253.66 190.935 253.775 191.504 254.005C192.087 254.236 192.588 254.548 193.008 254.941C193.415 255.333 193.727 255.794 193.943 256.323C194.174 256.851 194.289 257.414 194.289 258.01H198.863C198.876 256.79 198.653 255.672 198.192 254.656C197.745 253.64 197.115 252.765 196.301 252.034C195.488 251.302 194.513 250.733 193.374 250.326C192.249 249.92 191.023 249.716 189.695 249.716C188.014 249.716 186.537 250.015 185.263 250.611C184.003 251.194 182.946 251.986 182.092 252.989C181.238 253.992 180.595 255.164 180.161 256.506C179.741 257.847 179.531 259.27 179.531 260.774V261.486C179.531 263.004 179.748 264.433 180.181 265.775C180.615 267.103 181.252 268.268 182.092 269.271C182.946 270.274 184.003 271.074 185.263 271.67C186.537 272.253 188.021 272.544 189.715 272.544C190.935 272.544 192.094 272.347 193.191 271.954C194.303 271.548 195.285 270.999 196.139 270.308C196.979 269.617 197.643 268.804 198.131 267.869C198.632 266.92 198.876 265.91 198.863 264.84H194.289C194.289 265.395 194.16 265.904 193.903 266.364C193.659 266.825 193.327 267.225 192.907 267.564C192.473 267.902 191.972 268.167 191.402 268.356C190.847 268.533 190.264 268.621 189.654 268.621Z" fill="#D71010"/>
<path d="M216.216 272.117H221.176V271.771C220.905 271.202 220.694 270.525 220.545 269.739C220.41 268.939 220.342 268.045 220.342 267.056V257.278C220.342 256.031 220.112 254.934 219.651 253.985C219.19 253.023 218.553 252.23 217.74 251.607C216.927 250.983 215.958 250.516 214.833 250.204C213.722 249.879 212.523 249.716 211.235 249.716C209.799 249.716 208.518 249.906 207.393 250.286C206.282 250.651 205.34 251.153 204.568 251.79C203.795 252.413 203.206 253.131 202.799 253.944C202.393 254.758 202.182 255.605 202.169 256.485H207.048C207.048 256.065 207.122 255.672 207.271 255.306C207.434 254.927 207.678 254.608 208.003 254.351C208.328 254.066 208.735 253.843 209.223 253.68C209.724 253.518 210.307 253.436 210.971 253.436C211.703 253.436 212.346 253.531 212.902 253.721C213.471 253.897 213.952 254.155 214.345 254.493C214.711 254.832 214.989 255.232 215.179 255.693C215.382 256.153 215.484 256.668 215.484 257.237V258.721H211.947C210.361 258.721 208.938 258.87 207.678 259.169C206.431 259.467 205.381 259.9 204.527 260.47C203.605 261.079 202.901 261.852 202.413 262.787C201.939 263.708 201.701 264.772 201.701 265.978C201.701 266.913 201.884 267.787 202.25 268.6C202.63 269.4 203.151 270.084 203.815 270.653C204.493 271.236 205.299 271.697 206.234 272.036C207.183 272.361 208.227 272.524 209.365 272.524C210.07 272.524 210.727 272.456 211.337 272.32C211.947 272.185 212.516 271.995 213.044 271.751C213.573 271.521 214.047 271.25 214.467 270.938C214.901 270.613 215.287 270.274 215.626 269.922C215.694 270.342 215.768 270.748 215.85 271.141C215.945 271.521 216.066 271.846 216.216 272.117ZM210.3 268.621C209.677 268.621 209.135 268.546 208.674 268.397C208.213 268.235 207.827 268.018 207.515 267.747C207.203 267.476 206.966 267.15 206.804 266.771C206.641 266.378 206.56 265.958 206.56 265.511C206.56 264.969 206.655 264.481 206.844 264.047C207.048 263.613 207.353 263.241 207.759 262.929C208.22 262.563 208.836 262.285 209.609 262.096C210.381 261.892 211.296 261.791 212.353 261.791H215.484V265.856C215.308 266.209 215.057 266.547 214.732 266.873C214.406 267.198 214.02 267.489 213.573 267.747C213.126 268.004 212.624 268.214 212.069 268.377C211.527 268.539 210.937 268.621 210.3 268.621Z" fill="#D71010"/>
<path d="M238.63 266.161C238.63 266.513 238.549 266.839 238.386 267.137C238.237 267.421 238.007 267.686 237.695 267.93C237.315 268.228 236.807 268.465 236.17 268.641C235.547 268.817 234.815 268.905 233.975 268.905C233.352 268.905 232.735 268.844 232.125 268.722C231.515 268.587 230.973 268.37 230.499 268.072C230.011 267.787 229.604 267.415 229.279 266.954C228.967 266.48 228.791 265.904 228.751 265.226H224.035C224.035 266.134 224.251 267.028 224.685 267.909C225.119 268.79 225.756 269.569 226.596 270.247C227.423 270.938 228.446 271.494 229.665 271.914C230.899 272.334 232.308 272.544 233.894 272.544C235.317 272.544 236.611 272.381 237.776 272.056C238.942 271.731 239.945 271.277 240.785 270.694C241.611 270.111 242.248 269.413 242.696 268.6C243.156 267.787 243.387 266.893 243.387 265.917C243.387 264.914 243.17 264.047 242.736 263.315C242.303 262.584 241.693 261.947 240.907 261.405C240.121 260.89 239.172 260.456 238.061 260.104C236.95 259.751 235.723 259.453 234.381 259.209C233.419 259.047 232.62 258.864 231.983 258.66C231.359 258.457 230.872 258.234 230.519 257.99C230.14 257.759 229.875 257.495 229.726 257.197C229.577 256.885 229.503 256.54 229.503 256.16C229.503 255.794 229.591 255.449 229.767 255.123C229.943 254.785 230.207 254.493 230.56 254.249C230.912 253.978 231.359 253.768 231.901 253.619C232.457 253.457 233.101 253.375 233.833 253.375C234.632 253.375 235.33 253.484 235.926 253.701C236.523 253.904 237.011 254.182 237.39 254.534C237.715 254.832 237.959 255.171 238.122 255.55C238.298 255.916 238.386 256.302 238.386 256.709H243.244C243.244 255.72 243.028 254.798 242.594 253.944C242.16 253.091 241.544 252.352 240.744 251.729C239.931 251.105 238.942 250.618 237.776 250.265C236.611 249.899 235.296 249.716 233.833 249.716C232.464 249.716 231.217 249.893 230.092 250.245C228.981 250.597 228.032 251.078 227.246 251.688C226.447 252.298 225.83 253.009 225.396 253.823C224.976 254.622 224.766 255.469 224.766 256.363C224.766 257.298 224.976 258.118 225.396 258.823C225.817 259.514 226.399 260.124 227.145 260.652C227.904 261.195 228.805 261.655 229.848 262.035C230.905 262.414 232.071 262.733 233.345 262.99C234.361 263.18 235.208 263.383 235.886 263.6C236.563 263.817 237.112 264.047 237.532 264.291C237.925 264.562 238.203 264.847 238.366 265.145C238.542 265.443 238.63 265.782 238.63 266.161Z" fill="#D71010"/>
<path d="M256.105 244.757H251.226V250.123H245.9V253.762H251.226V264.576C251.226 265.985 251.409 267.191 251.775 268.194C252.154 269.197 252.676 270.023 253.34 270.674C254.004 271.311 254.797 271.785 255.719 272.097C256.654 272.395 257.677 272.544 258.788 272.544C259.398 272.544 260.008 272.51 260.618 272.442C261.241 272.388 261.837 272.307 262.406 272.198C262.976 272.09 263.504 271.961 263.992 271.812C264.493 271.649 264.92 271.46 265.273 271.243L264.744 267.889C264.5 267.943 264.195 268.011 263.829 268.092C263.477 268.16 263.091 268.221 262.671 268.275C262.264 268.343 261.837 268.397 261.39 268.438C260.943 268.478 260.509 268.499 260.089 268.499C259.506 268.499 258.971 268.431 258.483 268.295C257.995 268.16 257.575 267.93 257.223 267.604C256.87 267.293 256.593 266.866 256.389 266.324C256.2 265.768 256.105 265.084 256.105 264.271V253.762H264.378V250.123H256.105V244.757Z" fill="#D71010"/>
<path d="M269.372 240.894V244.94H276.324V268.092H269.372V272.117H287.89V268.092H281.223V240.894H269.372Z" fill="#D71010"/>
<path d="M300.791 272.524C302.933 272.524 304.755 272.103 306.26 271.263C307.777 270.423 308.902 269.474 309.634 268.417L307.032 265.897C306.355 266.764 305.494 267.435 304.45 267.909C303.407 268.37 302.282 268.6 301.076 268.6C300.195 268.6 299.382 268.451 298.637 268.153C297.905 267.855 297.268 267.435 296.726 266.893C296.184 266.378 295.757 265.795 295.445 265.145C295.133 264.494 294.903 263.688 294.754 262.726V262.624H310V260.53C310 258.959 309.79 257.509 309.37 256.18C308.95 254.852 308.326 253.707 307.5 252.745C306.673 251.797 305.65 251.058 304.43 250.529C303.21 249.987 301.808 249.716 300.222 249.716C298.799 249.716 297.458 249.987 296.197 250.529C294.951 251.058 293.853 251.817 292.904 252.806C291.956 253.795 291.21 254.988 290.668 256.384C290.126 257.78 289.855 259.338 289.855 261.059V261.892C289.855 263.397 290.112 264.799 290.627 266.1C291.156 267.388 291.901 268.506 292.863 269.454C293.826 270.416 294.978 271.168 296.319 271.71C297.674 272.253 299.165 272.524 300.791 272.524ZM300.202 253.66C301.015 253.66 301.727 253.802 302.336 254.087C302.96 254.358 303.475 254.724 303.881 255.184C304.301 255.659 304.627 256.214 304.857 256.851C305.087 257.475 305.203 258.105 305.203 258.742V259.067H294.856C295.005 258.227 295.235 257.475 295.547 256.811C295.858 256.147 296.245 255.577 296.706 255.103C297.166 254.642 297.688 254.29 298.271 254.046C298.867 253.789 299.511 253.66 300.202 253.66Z" fill="#D71010"/>
<path d="M102 62L156.5 44L211 62" stroke="#D71010" stroke-width="4" stroke-linecap="round" stroke-linejoin="round"/>
</svg>
